<?xml version="1.0" encoding="UTF-8" standalone="no"?>
<svg width="171px" height="171px" viewBox="0 0 171 171" version="1.1" xmlns="http://www.w3.org/2000/svg" xmlns:xlink="http://www.w3.org/1999/xlink">
    <!-- Generator: Sketch 3.6.1 (26313) - http://www.bohemiancoding.com/sketch -->
    <title>Page 1</title>
    <desc>Created with Sketch.</desc>
    <defs></defs>
    <g id="Page-1" stroke="none" stroke-width="1" fill="none" fill-rule="evenodd">
        <path d="M85.5,0 C38.1874667,0 0,38.1874667 0,85.5 C0,132.812533 38.1874667,171 85.5,171 C132.812533,171 171,132.812533 171,85.5 C171,38.1874667 132.812533,0 85.5,0 L85.5,0 Z M85.5,7.41253333 C128.437467,7.41253333 163.587467,42.3750667 163.587467,85.3125333 C163.587467,103.175067 157.512533,119.512533 147.437467,132.812533 L89.3,132.812533 L89.3,115.712533 L131.1,115.712533 L131.1,57 L100.124933,57 L114.564933,27.7374667 L107.724933,24.7 L91.5749333,57 L79.0374667,57 L62.8874667,24.5125333 L56.2374667,28.1250667 L70.8750667,57 L38,57 L38,115.9 L81.7,115.9 L81.7,133 L23.75,133 C13.4874667,119.7 7.6,103.362533 7.6,85.5 C7.41253333,42.3750667 42.5625333,7.41253333 85.5,7.41253333 L85.5,7.41253333 Z M123.5,64.6 L123.5,108.3 L45.6,108.3 L45.6,64.6 L123.5,64.6 Z M85.5,163.587467 C64.0249333,163.587467 44.4625333,155.8 30.2125333,140.6 L140.6,140.6 C126.537467,155.8 106.975067,163.587467 85.5,163.587467 L85.5,163.587467 Z M60.9874667,80.75 C60.9874667,78.6625333 62.7,76.95 64.7874667,76.95 C66.8749333,76.95 68.5874667,78.6625333 68.5874667,80.75 C68.5874667,82.8374667 66.8749333,84.55 64.7874667,84.55 C62.7,84.55 60.9874667,82.8374667 60.9874667,80.75 L60.9874667,80.75 Z M102.6,80.75 C102.6,78.6625333 104.312533,76.95 106.4,76.95 C108.487467,76.95 110.2,78.6625333 110.2,80.75 C110.2,82.8374667 108.487467,84.55 106.4,84.55 C104.312533,84.55 102.6,82.8374667 102.6,80.75 L102.6,80.75 Z M68.4,91.2 L102.6,91.2 L102.6,98.8 L68.4,98.8 L68.4,91.2 Z" fill="#75C1B7"></path>
    </g>
</svg>